<mxfile host="app.diagrams.net" modified="2021-02-13T02:00:09.822Z" agent="5.0 (Windows NT 10.0; Win64; x64) AppleWebKit/537.36 (KHTML, like Gecko) Chrome/88.0.4324.150 Safari/537.36" etag="QkeT_b_MXjpQKLGizsHz" version="14.3.1" type="github">
  <diagram name="Page-1" id="2a216829-ef6e-dabb-86c1-c78162f3ba2b">
    <mxGraphModel dx="1422" dy="794" grid="1" gridSize="10" guides="1" tooltips="1" connect="1" arrows="1" fold="1" page="1" pageScale="1" pageWidth="850" pageHeight="1100" background="#ffffff" math="0" shadow="0">
      <root>
        <mxCell id="0" />
        <mxCell id="1" parent="0" />
        <mxCell id="7a84cebc1def654-1" value="Start" style="shape=mxgraph.bpmn.shape;html=1;verticalLabelPosition=bottom;labelBackgroundColor=#ffffff;verticalAlign=top;perimeter=ellipsePerimeter;outline=standard;symbol=general;" parent="1" vertex="1">
          <mxGeometry x="260" y="265" width="50" height="50" as="geometry" />
        </mxCell>
        <mxCell id="7a84cebc1def654-2" value="Update exceptions in SharePoint list" style="shape=ext;rounded=1;html=1;whiteSpace=wrap;" parent="1" vertex="1">
          <mxGeometry x="360" y="250" width="120" height="80" as="geometry" />
        </mxCell>
        <mxCell id="tgY-BeAAQrtWUI7ia2YD-52" value="" style="edgeStyle=orthogonalEdgeStyle;rounded=0;orthogonalLoop=1;jettySize=auto;html=1;" edge="1" parent="1" source="7a84cebc1def654-3" target="tgY-BeAAQrtWUI7ia2YD-50">
          <mxGeometry relative="1" as="geometry" />
        </mxCell>
        <mxCell id="7a84cebc1def654-3" value="Request for exception approval" style="shape=ext;rounded=1;html=1;whiteSpace=wrap;" parent="1" vertex="1">
          <mxGeometry x="530" y="250" width="120" height="80" as="geometry" />
        </mxCell>
        <mxCell id="7a84cebc1def654-5" value="" style="shape=message;whiteSpace=wrap;html=1;" parent="1" vertex="1">
          <mxGeometry x="570" y="140" width="40" height="30" as="geometry" />
        </mxCell>
        <mxCell id="7a84cebc1def654-36" style="edgeStyle=orthogonalEdgeStyle;rounded=0;html=1;jettySize=auto;orthogonalLoop=1;" parent="1" source="7a84cebc1def654-1" target="7a84cebc1def654-2" edge="1">
          <mxGeometry relative="1" as="geometry" />
        </mxCell>
        <mxCell id="7a84cebc1def654-38" value="Send email to ICT managers" style="edgeStyle=orthogonalEdgeStyle;rounded=0;html=1;jettySize=auto;orthogonalLoop=1;endArrow=none;endFill=0;" parent="1" source="7a84cebc1def654-5" target="7a84cebc1def654-3" edge="1">
          <mxGeometry relative="1" as="geometry">
            <Array as="points">
              <mxPoint x="590" y="220" />
              <mxPoint x="590" y="220" />
            </Array>
          </mxGeometry>
        </mxCell>
        <mxCell id="7a84cebc1def654-39" style="edgeStyle=orthogonalEdgeStyle;rounded=0;html=1;jettySize=auto;orthogonalLoop=1;" parent="1" source="7a84cebc1def654-2" target="7a84cebc1def654-3" edge="1">
          <mxGeometry relative="1" as="geometry" />
        </mxCell>
        <mxCell id="tgY-BeAAQrtWUI7ia2YD-3" value="" style="edgeStyle=orthogonalEdgeStyle;rounded=0;orthogonalLoop=1;jettySize=auto;html=1;" edge="1" parent="1" source="tgY-BeAAQrtWUI7ia2YD-1" target="7a84cebc1def654-2">
          <mxGeometry relative="1" as="geometry" />
        </mxCell>
        <mxCell id="tgY-BeAAQrtWUI7ia2YD-1" value="Service Management" style="shape=umlActor;verticalLabelPosition=bottom;verticalAlign=top;html=1;outlineConnect=0;" vertex="1" parent="1">
          <mxGeometry x="405" y="125" width="30" height="60" as="geometry" />
        </mxCell>
        <mxCell id="tgY-BeAAQrtWUI7ia2YD-50" value="End" style="shape=mxgraph.bpmn.shape;html=1;verticalLabelPosition=bottom;labelBackgroundColor=#ffffff;verticalAlign=top;perimeter=ellipsePerimeter;outline=end;symbol=general;" vertex="1" parent="1">
          <mxGeometry x="710" y="265.00000000000006" width="50" height="50" as="geometry" />
        </mxCell>
        <mxCell id="tgY-BeAAQrtWUI7ia2YD-65" value="" style="edgeStyle=orthogonalEdgeStyle;rounded=0;orthogonalLoop=1;jettySize=auto;html=1;" edge="1" parent="1" source="tgY-BeAAQrtWUI7ia2YD-53" target="tgY-BeAAQrtWUI7ia2YD-64">
          <mxGeometry relative="1" as="geometry" />
        </mxCell>
        <mxCell id="tgY-BeAAQrtWUI7ia2YD-53" value="Receive exception approval request" style="html=1;whiteSpace=wrap;rounded=1;" vertex="1" parent="1">
          <mxGeometry x="360" y="540" width="120" height="80" as="geometry" />
        </mxCell>
        <mxCell id="tgY-BeAAQrtWUI7ia2YD-54" value="" style="html=1;shape=message;" vertex="1" parent="tgY-BeAAQrtWUI7ia2YD-53">
          <mxGeometry width="20" height="14" relative="1" as="geometry">
            <mxPoint x="7" y="7" as="offset" />
          </mxGeometry>
        </mxCell>
        <mxCell id="tgY-BeAAQrtWUI7ia2YD-58" value="" style="edgeStyle=orthogonalEdgeStyle;rounded=0;orthogonalLoop=1;jettySize=auto;html=1;" edge="1" parent="1" source="tgY-BeAAQrtWUI7ia2YD-57" target="tgY-BeAAQrtWUI7ia2YD-53">
          <mxGeometry relative="1" as="geometry" />
        </mxCell>
        <mxCell id="tgY-BeAAQrtWUI7ia2YD-57" value="Start" style="shape=mxgraph.bpmn.shape;html=1;verticalLabelPosition=bottom;labelBackgroundColor=#ffffff;verticalAlign=top;perimeter=ellipsePerimeter;outline=standard;symbol=general;" vertex="1" parent="1">
          <mxGeometry x="260" y="555" width="50" height="50" as="geometry" />
        </mxCell>
        <mxCell id="tgY-BeAAQrtWUI7ia2YD-62" value="" style="edgeStyle=orthogonalEdgeStyle;rounded=0;orthogonalLoop=1;jettySize=auto;html=1;" edge="1" parent="1" source="tgY-BeAAQrtWUI7ia2YD-61" target="tgY-BeAAQrtWUI7ia2YD-53">
          <mxGeometry relative="1" as="geometry" />
        </mxCell>
        <mxCell id="tgY-BeAAQrtWUI7ia2YD-61" value="ICT manager" style="shape=umlActor;verticalLabelPosition=bottom;verticalAlign=top;html=1;outlineConnect=0;" vertex="1" parent="1">
          <mxGeometry x="405" y="660" width="30" height="60" as="geometry" />
        </mxCell>
        <mxCell id="tgY-BeAAQrtWUI7ia2YD-67" value="Clarify" style="edgeStyle=orthogonalEdgeStyle;rounded=0;orthogonalLoop=1;jettySize=auto;html=1;" edge="1" parent="1" source="tgY-BeAAQrtWUI7ia2YD-64" target="7a84cebc1def654-2">
          <mxGeometry relative="1" as="geometry">
            <Array as="points">
              <mxPoint x="600" y="420" />
              <mxPoint x="420" y="420" />
            </Array>
          </mxGeometry>
        </mxCell>
        <mxCell id="tgY-BeAAQrtWUI7ia2YD-69" value="" style="edgeStyle=orthogonalEdgeStyle;rounded=0;orthogonalLoop=1;jettySize=auto;html=1;" edge="1" parent="1" source="tgY-BeAAQrtWUI7ia2YD-64" target="tgY-BeAAQrtWUI7ia2YD-68">
          <mxGeometry relative="1" as="geometry" />
        </mxCell>
        <mxCell id="tgY-BeAAQrtWUI7ia2YD-72" value="Approve/Reject" style="edgeLabel;html=1;align=center;verticalAlign=middle;resizable=0;points=[];" vertex="1" connectable="0" parent="tgY-BeAAQrtWUI7ia2YD-69">
          <mxGeometry x="-0.2111" y="-2" relative="1" as="geometry">
            <mxPoint as="offset" />
          </mxGeometry>
        </mxCell>
        <mxCell id="tgY-BeAAQrtWUI7ia2YD-64" value="Exception approval" style="rhombus;whiteSpace=wrap;html=1;" vertex="1" parent="1">
          <mxGeometry x="530" y="540" width="140" height="80" as="geometry" />
        </mxCell>
        <mxCell id="tgY-BeAAQrtWUI7ia2YD-66" value="&lt;ul&gt;&lt;li&gt;Approve&lt;/li&gt;&lt;li&gt;Reject&lt;/li&gt;&lt;li&gt;Calrify&lt;/li&gt;&lt;/ul&gt;" style="text;strokeColor=none;fillColor=none;html=1;whiteSpace=wrap;verticalAlign=middle;overflow=hidden;" vertex="1" parent="1">
          <mxGeometry x="570" y="605" width="100" height="80" as="geometry" />
        </mxCell>
        <mxCell id="tgY-BeAAQrtWUI7ia2YD-68" value="Request for exception approval" style="shape=ext;rounded=1;html=1;whiteSpace=wrap;" vertex="1" parent="1">
          <mxGeometry x="850" y="540" width="120" height="80" as="geometry" />
        </mxCell>
      </root>
    </mxGraphModel>
  </diagram>
</mxfile>
